PathFileType  4	(X/Y/Z) C:\Users\antoi\Documents\MyRepositories\mobilecap\ResultsAnalysis
DataRate	CameraRate	NumFrames	NumMarkers	Units	OrigDataRate	OrigDataStartFrame	OrigNumFrames
100.0	100.0	4	51	mm	100.0	114	130
Frame#	Time	r_knee			r_shank_antsup			r_ankle			r_calc			r_5meta			r_toe			L_knee			L_shank_antsup			L_ankle			L_calc			L_5meta			L_toe			r_sh2			r_sh3			r_sh4			L_sh2			L_sh3			r_thigh1			r_thigh2			r_thigh3			r_thigh4			r_thigh5			L_thigh1			L_thigh2			L_thigh3			L_thigh4			r.ASIS			r.PSIS			L.ASIS			L.PSIS			C7			R_Shoulder			L_Shoulder			R_Sternum			L_Sternum			R_humerus			R_elbow_med			R_elbow_lat			R_forearm			R_wrist_radius			R_wrist_ulna			L_humerus			L_elbow_med			L_elbow_lat			L_forearm			L_wrist_radius			L_wrist_ulna			R_HJC			L_HJC			R_HJC_reg			L_HJC_reg			
		X1	Y1	Z1	X2	Y2	Z2	X3	Y3	Z3	X4	Y4	Z4	X5	Y5	Z5	X6	Y6	Z6	X7	Y7	Z7	X8	Y8	Z8	X9	Y9	Z9	X10	Y10	Z10	X11	Y11	Z11	X12	Y12	Z12	X13	Y13	Z13	X14	Y14	Z14	X15	Y15	Z15	X16	Y16	Z16	X17	Y17	Z17	X18	Y18	Z18	X19	Y19	Z19	X20	Y20	Z20	X21	Y21	Z21	X22	Y22	Z22	X23	Y23	Z23	X24	Y24	Z24	X25	Y25	Z25	X26	Y26	Z26	X27	Y27	Z27	X28	Y28	Z28	X29	Y29	Z29	X30	Y30	Z30	X31	Y31	Z31	X32	Y32	Z32	X33	Y33	Z33	X34	Y34	Z34	X35	Y35	Z35	X36	Y36	Z36	X37	Y37	Z37	X38	Y38	Z38	X39	Y39	Z39	X40	Y40	Z40	X41	Y41	Z41	X42	Y42	Z42	X43	Y43	Z43	X44	Y44	Z44	X45	Y45	Z45	X46	Y46	Z46	X47	Y47	Z47	X48	Y48	Z48	X49	Y49	Z49	X50	Y50	Z50	X51	Y51	Z51	

114	1.13000000	1448.43033	452.80562	-106.97714	1476.50144	386.02239	-88.49699	1521.59541	87.48330	-138.13339	1459.67095	51.12375	-178.16152	1629.91699	54.98188	-115.12091	1668.23580	86.30401	-169.17760	1145.99815	453.45504	-361.19734	1131.57177	383.40839	-363.05050	920.19257	152.37682	-322.28616	842.41778	163.53586	-275.94314	961.60684	48.56986	-334.55322	1015.19646	49.42963	-280.30365	1502.01065	276.51141	-91.67375	1404.09320	367.90814	-96.09038	1421.85491	253.24547	-104.34295	1063.61857	441.38693	-374.33478	994.10791	341.56159	-370.48054	1403.87920	763.86372	-98.42199	1448.56847	659.32537	-97.80569	1413.93508	622.26583	-52.93238	1317.17681	729.54975	-32.67143	1356.15313	620.23075	-47.38376	1294.71475	710.20308	-395.28544	1262.13356	576.15938	-387.67863	1181.97262	739.09116	-398.71635	1156.48734	599.69696	-377.69519	1363.01518	890.76247	-107.00672	1175.52461	889.27251	-158.22467	1342.43068	877.35937	-364.65479	1164.50024	890.74127	-263.08002	1204.11135	1364.48925	-236.69875	1250.36223	1310.49390	-77.73355	1273.29566	1312.02285	-393.44001	1321.63741	1284.21715	-210.14371	1322.67505	1283.85967	-255.08035	1231.88456	1074.68439	11.21875	1198.06832	969.60059	-47.00921	1195.38208	993.55328	20.85829	1215.46772	884.86515	67.88329	1211.48557	767.88581	93.20289	1169.77461	766.74338	79.26553	1347.33810	1206.13855	-439.38426	1371.55459	981.20560	-437.22917	1389.52085	1006.42683	-490.74325	1498.84600	980.08250	-477.21379	1600.28355	912.53411	-444.60944	1592.28550	885.48240	-470.11105	1303.10877	808.94248	-124.31454	1285.08456	804.29463	-323.74582	1309.61063	793.49589	-139.33180	1291.74960	795.87343	-309.20385	
115	1.14000000	1463.40752	453.68409	-107.41777	1490.21211	385.93715	-89.06801	1525.14829	86.84319	-138.84432	1461.17397	52.51454	-178.54068	1631.81899	50.90567	-115.37018	1671.72223	79.97594	-169.76640	1167.77352	451.58430	-362.48115	1150.73705	382.11163	-364.91306	931.38870	159.03655	-322.66943	855.97331	176.40864	-275.77958	964.68575	51.86450	-334.21046	1018.60106	49.28046	-280.57529	1512.93066	275.84773	-92.37599	1417.52278	369.71406	-96.39947	1432.20881	254.61042	-104.73683	1084.92902	442.85851	-374.59865	1011.69131	345.67201	-370.40939	1419.52401	765.08171	-98.14829	1464.09100	660.44584	-98.31722	1429.61922	623.35972	-53.39915	1333.48667	730.97480	-31.49780	1371.49910	621.50386	-47.32594	1312.55370	710.45089	-394.15741	1282.07013	575.74322	-388.23354	1199.51563	737.55530	-396.57745	1176.22015	597.82623	-377.37598	1379.00787	891.87090	-105.62768	1191.30763	889.72472	-157.47287	1358.89029	877.73874	-363.18246	1180.58776	890.62238	-262.57667	1218.37634	1364.96252	-234.11657	1266.29897	1310.66721	-75.47073	1286.66794	1312.78463	-391.53865	1335.96954	1284.73829	-208.42469	1337.02301	1284.58477	-253.30266	1249.73201	1074.41868	12.92275	1215.49631	969.36344	-45.38928	1213.31729	993.13212	22.58492	1233.67523	884.40026	69.18621	1229.62468	767.53543	94.25064	1187.85642	766.27019	80.51142	1360.07014	1206.24988	-438.06144	1382.70392	981.08363	-435.81903	1400.39030	1006.17610	-489.52542	1509.60551	978.85309	-476.69583	1610.57771	910.57671	-444.63156	1602.27792	883.54658	-470.02904	1319.16390	809.83675	-122.93508	1301.75953	804.54171	-322.40095	1325.67112	794.68792	-137.59615	1308.34337	796.13830	-307.46729	
116	1.15000000	1477.66643	454.80404	-107.50030	1502.96976	386.08507	-89.12291	1527.76995	86.55543	-139.24643	1462.26123	53.53990	-178.70287	1633.09705	48.06208	-115.26002	1674.26731	75.14942	-169.99916	1191.07277	449.48865	-364.07326	1171.58245	380.77805	-367.05044	944.36233	166.12477	-323.12980	872.42950	190.24255	-275.49522	968.33614	56.12838	-333.74750	1022.58636	49.49409	-281.08502	1522.69924	275.46651	-92.55329	1429.93421	371.86304	-96.44779	1441.47119	256.42770	-104.77854	1108.00136	444.21531	-375.00985	1031.12479	349.87510	-370.41758	1434.82186	766.72828	-97.59750	1479.20031	661.95235	-98.33584	1444.80272	624.89021	-53.35891	1349.29444	732.84422	-30.19657	1386.35680	623.15319	-46.93795	1330.81579	711.01099	-393.04375	1303.08696	575.45994	-388.98922	1217.53427	735.77020	-394.68258	1196.98150	595.67068	-377.47426	1394.67812	893.49627	-104.19733	1206.82854	890.64823	-156.92310	1375.13472	878.51459	-361.65952	1196.46577	890.74663	-262.28510	1232.59992	1365.86889	-231.58172	1282.21315	1311.26875	-73.25692	1300.03228	1313.90555	-389.68688	1350.24509	1285.70590	-206.70387	1351.25483	1285.71213	-251.52780	1267.88002	1074.53221	14.53409	1233.13981	969.52764	-43.82768	1231.59196	993.09350	24.27083	1252.42568	884.29882	70.34088	1248.45788	767.51149	95.11393	1206.58647	766.12889	81.68625	1372.65236	1206.58236	-436.78636	1393.31932	981.17685	-434.32216	1410.74462	1006.06945	-488.24574	1519.74573	977.42536	-476.31383	1620.07064	908.13872	-444.91595	1611.34665	881.11103	-470.12148	1334.92206	811.23068	-121.54843	1318.31346	805.14696	-321.05338	1341.38965	796.56999	-135.63970	1324.67932	796.73036	-305.51122	
117	1.16000000	1491.01330	456.03865	-107.16438	1514.65741	386.36915	-88.68554	1529.55293	86.49537	-139.40671	1462.97133	54.23065	-178.69107	1633.88244	46.23582	-114.95051	1675.98955	71.68014	-170.03228	1215.73640	447.19883	-365.97812	1194.07032	379.36632	-369.42164	959.17827	173.53417	-323.67326	891.91483	204.67428	-275.09193	972.75163	61.49361	-333.17212	1027.24030	50.22877	-281.87404	1531.24843	275.26974	-92.26340	1441.16707	374.20460	-96.09824	1449.54903	258.55418	-104.35062	1132.77477	445.33666	-375.66461	1052.41901	353.99618	-370.59662	1449.78211	768.71519	-96.75230	1493.89329	663.75876	-97.80473	1459.45121	626.78483	-52.78188	1364.58112	735.10619	-28.79798	1400.80133	625.19397	-46.15181	1349.41662	711.83626	-391.95759	1325.05653	575.34133	-389.89653	1235.92935	733.73844	-393.12684	1218.64187	593.22675	-377.99273	1409.98715	895.64644	-102.73393	1222.05695	892.02502	-156.57440	1391.04262	879.64918	-360.10035	1212.07859	891.10824	-262.19326	1246.77303	1367.17489	-229.14826	1298.06533	1312.31041	-71.15418	1313.38147	1315.36338	-387.89690	1364.48892	1287.08662	-205.02487	1365.37421	1287.19654	-249.80107	1286.28715	1075.06464	16.01755	1250.97029	970.12615	-42.35034	1250.18464	993.47709	25.88514	1271.70039	884.60130	71.31685	1267.99083	767.82423	95.77517	1225.95759	766.36919	82.78037	1385.09439	1207.17176	-435.57309	1403.40579	981.52609	-432.73281	1420.59574	1006.14535	-486.89342	1529.26230	975.84807	-476.03527	1628.74526	905.26108	-445.43417	1619.47827	878.22314	-470.36555	1350.34220	813.12426	-120.15927	1334.65979	806.08386	-319.70104	1356.73115	799.10640	-133.48331	1340.67974	797.63641	-303.35075	
